<svg xmlns="http://www.w3.org/2000/svg" width="96" height="96" viewBox="0 0 96 96">
  <defs>
    <linearGradient id="g" x1="0%" y1="0%" x2="100%" y2="100%">
      <stop offset="0%" stop-color="#f59e0b"/>
      <stop offset="50%" stop-color="#facc15"/>
      <stop offset="100%" stop-color="#86efac"/>
    </linearGradient>
  </defs>
  <rect x="8" y="8" width="80" height="80" rx="18" fill="url(#g)" />
  <circle cx="48" cy="48" r="26" fill="rgba(255,255,255,0.88)" />
  <circle cx="48" cy="48" r="18" fill="#f59e0b" opacity="0.18" />
  <path d="M48 25a23 23 0 0 0-23 23c0 12.7 10.3 23 23 23s23-10.3 23-23S60.7 25 48 25Zm0 5c3 0 5.4 2.4 5.4 5.4S51 40.8 48 40.8s-5.4-2.4-5.4-5.4S45 30 48 30Z" fill="#92400e" opacity="0.45"/>
  <path d="M65 29c3.5 1.3 5.2 5.5 3.9 9l-6 16.4c-1.3 3.5-5.5 5.3-9 4l-3.2-1.2 11.2-30.2L65 29Z" fill="#15803d" opacity="0.9"/>
  <path d="M38 52c0-4.4 6.3-6.5 9-2.8l3.6 4.9c1.8 2.5 0.8 6-2.1 7.1l-5.3 2c-3.5 1.3-7.2-1.3-7.2-5.1V52Z" fill="#f97316" opacity="0.85"/>
  <path d="M30 44c0-1.7 1.3-3 3-3s3 1.3 3 3v14c0 1.7-1.3 3-3 3s-3-1.3-3-3V44Z" fill="#451a03" opacity="0.6"/>
  <path d="M60 25.5c-.5-1.2.1-2.6 1.3-3l3.4-1.3c1.2-.5 2.6.1 3 1.3l1.3 3.3c.5 1.2-.1 2.6-1.3 3L64.3 30c-1.2.5-2.6-.1-3-1.3L60 25.5Z" fill="#f8fafc" opacity="0.7"/>
</svg>
